<?xml version="1.0" encoding="UTF-8"?><svg id="Capa_1" xmlns="http://www.w3.org/2000/svg" viewBox="0 0 512 512"><rect x="0" y="0" width="512" height="512" rx="256" ry="256" style="fill:#e8e8e8; stroke-width:0px;"/><path d="M375.9,174.19v214.79c0,16.79-13.69,30.46-30.5,30.46h-179.39c-16.79,0-30.46-13.67-30.46-30.46V123.2c0-16.81,13.67-30.46,30.46-30.46h127.06l.62.04.24.02c2.56.2,5.14.96,7.46,2.2,1.64.92,3.08,2,4.3,3.22l64.72,64.74c.6.58,1.04,1.1,1.44,1.6,1.68,2.08,2.92,4.64,3.54,7.34l.16.7.36,1.6Z" style="fill:#fff; stroke-width:0px;"/><polygon points="293.7 92.74 293.7 92.78 293.08 92.74 293.7 92.74" style="fill:#fff; stroke-width:0px;"/><polygon points="375.9 172.59 375.9 174.19 375.55 172.59 375.9 172.59" style="fill:#fff; stroke-width:0px;"/><polygon points="293.08 92.74 290.52 92.74 290.52 92.56 293.08 92.74" style="fill:#fff; stroke-width:0px;"/><polygon points="376.26 175.79 375.9 175.79 375.9 174.19 376.26 175.79" style="fill:#fff; stroke-width:0px;"/><path d="M376.08,172.59v216.38c0,16.79-13.69,30.46-30.5,30.46h-179.39c-16.79,0-30.46-13.67-30.46-30.46V123.2c0-16.81,13.67-30.46,30.46-30.46h127.68v14.69l-3.18-.26-.26-.02c-.34-.02-.74-.02-1.08-.02h-123.16c-8.87,0-16.09,7.22-16.09,16.07v265.77c0,8.85,7.22,16.07,16.09,16.07h179.39c8.89,0,16.11-7.22,16.11-16.07v-209.51c0-.94-.1-1.96-.34-2.96l-.16-.72-.76-3.2h15.65Z" style="fill:#051b35; stroke-width:0px;"/><path d="M376.44,175.79h-58.8c-14.85,0-26.94-12.11-26.94-26.98v-56.24l2.56.18.62.04.24.02c2.56.2,5.14.96,7.46,2.2,1.64.92,3.08,2,4.3,3.22l64.72,64.74c.6.58,1.04,1.1,1.44,1.6,1.68,2.08,2.92,4.64,3.54,7.34l.16.7.36,1.6.36,1.6Z" style="fill:#c9a000; stroke-width:0px;"/><path d="M342.17,177.96v45.83c0,3.36-2.74,6.12-6.12,6.12h-160.3c-3.38,0-6.12-2.76-6.12-6.12v-48.61c0-3.36,2.74-6.1,6.12-6.1h108.49v-2.66h-108.49c-4.84,0-8.79,3.92-8.79,8.75v48.61c0,4.86,3.96,8.77,8.79,8.77h160.3c4.84,0,8.79-3.92,8.79-8.77v-45.83h-2.68Z" style="fill:#051b35; stroke-width:0px;"/><path d="M213.41,187.55v23.89c0,3.2-2.6,5.8-5.8,5.8h-21.55c-3.2,0-5.8-2.6-5.8-5.8v-23.89c0-3.22,2.6-5.82,5.8-5.82h21.55c3.2,0,5.8,2.6,5.8,5.82Z" style="fill:#051b35; stroke-width:0px;"/><path d="M272.43,210.64v1.24c0,1.04-.82,1.86-1.86,1.86h-45.95c-1.04,0-1.86-.82-1.86-1.86v-1.24c0-1.02.82-1.86,1.86-1.86h45.95c1.04,0,1.86.84,1.86,1.86Z" style="fill:#051b35; stroke-width:0px;"/><path d="M248.09,193.15v1.24c0,1.02-.84,1.86-1.88,1.86h-21.59c-1.04,0-1.86-.84-1.86-1.86v-1.24c0-1.02.82-1.86,1.86-1.86h21.59c1.04,0,1.88.84,1.88,1.86Z" style="fill:#051b35; stroke-width:0px;"/><rect x="301.83" y="182.43" width="5.54" height="34.1" style="fill:#051b35; stroke-width:0px;"/><rect x="314.24" y="182.43" width="5.52" height="34.1" style="fill:#051b35; stroke-width:0px;"/><rect x="326.64" y="182.43" width="5.54" height="34.1" style="fill:#051b35; stroke-width:0px;"/><path d="M336.05,243.59h-160.3c-4.84,0-8.79,3.94-8.79,8.77v48.61c0,4.84,3.96,8.77,8.79,8.77h160.3c4.84,0,8.77-3.94,8.77-8.77v-48.61c0-4.84-3.94-8.77-8.77-8.77ZM342.17,300.98c0,3.36-2.74,6.12-6.12,6.12h-160.3c-3.38,0-6.12-2.76-6.12-6.12v-48.61c0-3.36,2.74-6.1,6.12-6.1h160.3c3.38,0,6.12,2.74,6.12,6.1v48.61Z" style="fill:#051b35; stroke-width:0px;"/><rect x="180.26" y="258.93" width="33.14" height="35.5" rx="2.9" ry="2.9" style="fill:#051b35; stroke-width:0px;"/><rect x="222.76" y="285.96" width="49.68" height="4.96" rx=".93" ry=".93" style="fill:#051b35; stroke-width:0px;"/><rect x="222.76" y="268.47" width="25.32" height="4.96" rx=".93" ry=".93" style="fill:#051b35; stroke-width:0px;"/><rect x="301.83" y="259.63" width="5.53" height="34.1" style="fill:#051b35; stroke-width:0px;"/><rect x="314.23" y="259.63" width="5.53" height="34.1" style="fill:#051b35; stroke-width:0px;"/><rect x="326.64" y="259.63" width="5.53" height="34.1" style="fill:#051b35; stroke-width:0px;"/><path d="M336.05,320.79h-160.3c-4.84,0-8.79,3.94-8.79,8.77v48.61c0,4.84,3.96,8.77,8.79,8.77h160.3c4.84,0,8.77-3.94,8.77-8.77v-48.61c0-4.84-3.94-8.77-8.77-8.77ZM342.17,378.17c0,3.36-2.74,6.1-6.12,6.1h-160.3c-3.38,0-6.12-2.74-6.12-6.1v-48.61c0-3.36,2.74-6.1,6.12-6.1h160.3c3.38,0,6.12,2.74,6.12,6.1v48.61Z" style="fill:#051b35; stroke-width:0px;"/><path d="M361.35,176.52l-.16-.72h-43.55c-14.85,0-26.94-12.11-26.94-26.98v-41.63l-.26-.02c-.34-.02-.74-.02-1.08-.02h-123.16c-8.87,0-16.09,7.22-16.09,16.07v265.77c0,8.85,7.22,16.07,16.09,16.07h179.39c8.89,0,16.11-7.22,16.11-16.07v-209.51c0-.94-.1-1.96-.34-2.96ZM326.64,182.43h5.54v34.1h-5.54v-34.1ZM314.24,182.43h5.52v34.1h-5.52v-34.1ZM301.83,182.43h5.54v34.1h-5.54v-34.1ZM344.82,378.17c0,4.84-3.94,8.77-8.77,8.77h-160.3c-4.84,0-8.79-3.94-8.79-8.77v-48.61c0-4.84,3.96-8.77,8.79-8.77h160.3c4.84,0,8.77,3.94,8.77,8.77v48.61ZM344.82,300.98c0,4.84-3.94,8.77-8.77,8.77h-160.3c-4.84,0-8.79-3.94-8.79-8.77v-48.61c0-4.84,3.96-8.77,8.79-8.77h160.3c4.84,0,8.77,3.94,8.77,8.77v48.61ZM344.84,223.79c0,4.86-3.96,8.77-8.79,8.77h-160.3c-4.84,0-8.79-3.92-8.79-8.77v-48.61c0-4.84,3.96-8.75,8.79-8.75h108.49v2.66h-108.49c-3.38,0-6.12,2.74-6.12,6.1v48.61c0,3.36,2.74,6.12,6.12,6.12h160.3c3.38,0,6.12-2.76,6.12-6.12v-45.83h2.68v45.83ZM224.62,208.78h45.95c1.04,0,1.86.84,1.86,1.86v1.24c0,1.04-.82,1.86-1.86,1.86h-45.95c-1.04,0-1.86-.82-1.86-1.86v-1.24c0-1.02.82-1.86,1.86-1.86ZM222.76,194.39v-1.24c0-1.02.82-1.86,1.86-1.86h21.59c1.04,0,1.88.84,1.88,1.86v1.24c0,1.02-.84,1.86-1.88,1.86h-21.59c-1.04,0-1.86-.84-1.86-1.86ZM213.41,187.55v23.89c0,3.2-2.6,5.8-5.8,5.8h-21.55c-3.2,0-5.8-2.6-5.8-5.8v-23.89c0-3.22,2.6-5.82,5.8-5.82h21.55c3.2,0,5.8,2.6,5.8,5.82Z" style="fill:none; stroke-width:0px;"/><rect x="180.26" y="336.11" width="33.14" height="35.5" rx="2.9" ry="2.9" style="fill:#051b35; stroke-width:0px;"/><rect x="222.76" y="363.15" width="49.68" height="4.96" rx=".93" ry=".93" style="fill:#051b35; stroke-width:0px;"/><rect x="222.76" y="345.66" width="25.32" height="4.96" rx=".93" ry=".93" style="fill:#051b35; stroke-width:0px;"/><rect x="301.83" y="336.81" width="5.53" height="34.1" style="fill:#051b35; stroke-width:0px;"/><rect x="314.23" y="336.81" width="5.53" height="34.1" style="fill:#051b35; stroke-width:0px;"/><rect x="326.64" y="336.81" width="5.53" height="34.1" style="fill:#051b35; stroke-width:0px;"/></svg>