<?xml version="1.0" encoding="UTF-8"?><svg id="Capa_1" xmlns="http://www.w3.org/2000/svg" viewBox="0 0 512 512"><rect x="0" y="0" width="512" height="512" rx="256" ry="256" style="fill:#051b35; stroke-width:0px;"/><path d="M378.66,172.34v219.4c0,16.62-13.13,30.24-29.56,31.07-.47.02-.94.04-1.41.04h-183.24c-.53,0-1.06-.02-1.59-.04-16.5-.73-29.71-14.39-29.71-31.07V120.26c0-16.7,13.21-30.34,29.71-31.07.53-.02,1.06-.04,1.59-.04h129.61l.63.04.18.02h.06c2.61.2,5.25.98,7.62,2.25,1.67.94,3.14,2.04,4.39,3.29l66.11,66.13c.61.59,1.06,1.12,1.47,1.63,1.72,2.12,2.98,4.74,3.61,7.49l.16.71.37,1.63Z" style="fill:#fff; stroke-width:0px;"/><polygon points="294.69 89.16 294.69 89.18 294.06 89.14 294.24 89.14 294.69 89.16" style="fill:#051b35; stroke-width:0px;"/><polygon points="378.66 171.53 378.66 172.34 378.3 170.71 378.48 170.71 378.66 171.53" style="fill:#051b35; stroke-width:0px;"/><polygon points="378.85 173.16 378.85 173.98 378.66 173.98 378.66 172.34 378.85 173.16" style="fill:#051b35; stroke-width:0px;"/><path d="M378.85,172.34v219.4c0,16.68-13.23,30.34-29.75,31.07-.47.02-.94.04-1.41.04h-183.24c-.53,0-1.06-.02-1.59-.04-16.42-.84-29.52-14.46-29.52-31.07V120.26c0-16.64,13.11-30.24,29.52-31.07.53-.02,1.06-.04,1.59-.04h129.79l.45.02.18.02v14.97l-3.25-.27-.27-.02c-.35-.02-.76-.02-1.1-.02h-125.81c-9.07,0-16.44,7.37-16.44,16.42v271.48c0,9.04,7.37,16.42,16.44,16.42h183.24c9.09,0,16.46-7.37,16.46-16.42v-214.01c0-.96-.1-2-.35-3.02l-.16-.73-.78-3.27h15.62l.18.82.18.82Z" style="fill:#fff; stroke-width:0px;"/><path d="M364.14,177.73v214.01c0,9.04-7.37,16.42-16.46,16.42h-183.24c-9.07,0-16.44-7.37-16.44-16.42V120.26c0-9.04,7.37-16.42,16.44-16.42h125.81c.35,0,.76,0,1.1.02l.27.02v42.53c0,15.19,12.35,27.56,27.52,27.56h44.49l.16.73c.24,1.02.35,2.06.35,3.02Z" style="fill:#fff; stroke-width:0px;"/><path d="M346.92,176.18v-11.78h-172.71c-4.94,0-8.98,4-8.98,8.94v49.65c0,4.96,4.04,8.96,8.98,8.96h163.74c4.94,0,8.98-4,8.98-8.96v-46.82h-.02ZM222.23,191.7c0-1.04.84-1.9,1.9-1.9h22.05c1.06,0,1.92.86,1.92,1.9v1.27c0,1.04-.86,1.9-1.92,1.9h-22.05c-1.06,0-1.9-.86-1.9-1.9v-1.27ZM212.68,210.38c0,3.27-2.65,5.92-5.92,5.92h-22.01c-3.27,0-5.92-2.65-5.92-5.92v-24.4c0-3.29,2.65-5.94,5.92-5.94h22.01c3.27,0,5.92,2.65,5.92,5.94v24.4ZM272.97,210.83c0,1.06-.84,1.9-1.9,1.9h-46.94c-1.06,0-1.9-.84-1.9-1.9v-1.27c0-1.04.84-1.9,1.9-1.9h46.94c1.06,0,1.9.86,1.9,1.9v1.27ZM308.65,215.58h-5.66v-34.83h5.66v34.83ZM321.31,215.58h-5.64v-34.83h5.64v34.83ZM333.99,215.58h-5.66v-34.83h5.66v34.83Z" style="fill:#051b35; stroke-width:0px;"/><path d="M212.68,185.98v24.4c0,3.27-2.65,5.92-5.92,5.92h-22.01c-3.27,0-5.92-2.65-5.92-5.92v-24.4c0-3.29,2.65-5.94,5.92-5.94h22.01c3.27,0,5.92,2.65,5.92,5.94Z" style="fill:#fff; stroke-width:0px;"/><path d="M272.97,209.56v1.27c0,1.06-.84,1.9-1.9,1.9h-46.94c-1.06,0-1.9-.84-1.9-1.9v-1.27c0-1.04.84-1.9,1.9-1.9h46.94c1.06,0,1.9.86,1.9,1.9Z" style="fill:#fff; stroke-width:0px;"/><path d="M248.1,191.7v1.27c0,1.04-.86,1.9-1.92,1.9h-22.05c-1.06,0-1.9-.86-1.9-1.9v-1.27c0-1.04.84-1.9,1.9-1.9h22.05c1.06,0,1.92.86,1.92,1.9Z" style="fill:#fff; stroke-width:0px;"/><rect x="303" y="180.75" width="5.66" height="34.83" style="fill:#fff; stroke-width:0px;"/><rect x="315.68" y="180.75" width="5.64" height="34.83" style="fill:#fff; stroke-width:0px;"/><rect x="328.34" y="180.75" width="5.66" height="34.83" style="fill:#fff; stroke-width:0px;"/><path d="M346.92,252.19v49.65c0,4.94-4.02,8.96-8.96,8.96h-163.74c-4.94,0-8.98-4.02-8.98-8.96v-49.65c0-4.94,4.04-8.96,8.98-8.96h163.74c4.94,0,8.96,4.02,8.96,8.96Z" style="fill:#051b35; stroke-width:0px;"/><rect x="178.81" y="258.9" width="33.86" height="36.26" rx="2.9" ry="2.9" style="fill:#fff; stroke-width:0px;"/><rect x="222.22" y="286.52" width="50.75" height="5.07" rx=".93" ry=".93" style="fill:#fff; stroke-width:0px;"/><rect x="222.22" y="268.65" width="25.86" height="5.07" rx=".93" ry=".93" style="fill:#fff; stroke-width:0px;"/><rect x="302.99" y="259.62" width="5.65" height="34.83" style="fill:#fff; stroke-width:0px;"/><rect x="315.66" y="259.62" width="5.65" height="34.83" style="fill:#fff; stroke-width:0px;"/><rect x="328.33" y="259.62" width="5.65" height="34.83" style="fill:#fff; stroke-width:0px;"/><path d="M346.92,331.04v49.65c0,4.94-4.02,8.96-8.96,8.96h-163.74c-4.94,0-8.98-4.02-8.98-8.96v-49.65c0-4.94,4.04-8.96,8.98-8.96h163.74c4.94,0,8.96,4.02,8.96,8.96Z" style="fill:#051b35; stroke-width:0px;"/><rect x="178.81" y="337.74" width="33.86" height="36.26" rx="2.9" ry="2.9" style="fill:#fff; stroke-width:0px;"/><rect x="222.22" y="365.36" width="50.75" height="5.07" rx=".93" ry=".93" style="fill:#fff; stroke-width:0px;"/><rect x="222.22" y="347.49" width="25.86" height="5.07" rx=".93" ry=".93" style="fill:#fff; stroke-width:0px;"/><rect x="302.99" y="338.46" width="5.65" height="34.83" style="fill:#fff; stroke-width:0px;"/><rect x="315.66" y="338.46" width="5.65" height="34.83" style="fill:#fff; stroke-width:0px;"/><rect x="328.33" y="338.46" width="5.65" height="34.83" style="fill:#fff; stroke-width:0px;"/><rect x="303" y="180.75" width="5.66" height="1.82" style="fill:#fff; stroke-width:0px;"/><rect x="315.68" y="180.75" width="5.64" height="1.82" style="fill:#fff; stroke-width:0px;"/><rect x="328.34" y="180.75" width="5.66" height="1.82" style="fill:#fff; stroke-width:0px;"/><path d="M378.85,172.34v1.63h-59.7c-.94,0-1.88-.04-2.82-.14-.33-.04-.65-.08-.98-.12-.06-.02-.12-.02-.18-.04h-.04c-.22-.02-.47-.06-.69-.1-.08-.02-.14-.02-.22-.04-.04,0-.06-.02-.1-.02-.33-.06-.69-.12-1.02-.2-.47-.1-.94-.22-1.41-.37-.06-.02-.14-.04-.2-.06-.47-.12-.96-.29-1.41-.45-.37-.12-.73-.25-1.08-.41-.06-.02-.12-.04-.18-.06-.43-.18-.86-.37-1.29-.57-.45-.2-.88-.43-1.31-.65-.2-.1-.41-.22-.59-.33-.24-.14-.49-.29-.71-.43-.43-.27-.86-.53-1.27-.82-.37-.24-.74-.51-1.08-.78-.51-.39-1-.8-1.47-1.2l-.43-.37c-.47-.43-.92-.88-1.35-1.33-.35-.35-.65-.71-.98-1.08-.27-.31-.51-.61-.76-.92-.27-.35-.53-.67-.78-1.02-.22-.31-.43-.61-.63-.92-.22-.35-.43-.67-.63-1.02-.37-.61-.71-1.22-1.02-1.88-.14-.31-.31-.61-.45-.94-.04-.06-.06-.14-.1-.2-.1-.27-.22-.53-.33-.8-.12-.29-.22-.57-.33-.84-.16-.41-.31-.84-.43-1.27-.08-.25-.16-.51-.22-.76-.12-.39-.22-.8-.31-1.18-.08-.31-.14-.63-.2-.94-.06-.37-.14-.76-.18-1.12-.14-.92-.24-1.84-.29-2.78-.02-.47-.04-.94-.04-1.41v-57.27h2.61l.45.02.18.02.24.02c2.61.2,5.25.98,7.62,2.25,1.67.94,3.14,2.04,4.39,3.29l66.11,66.13c.61.59,1.06,1.12,1.47,1.63,1.71,2.12,2.98,4.74,3.61,7.49l.16.71.18.82.18.82Z" style="fill:#c9a000; stroke-width:0px;"/></svg>