<?xml version="1.0" encoding="UTF-8"?><svg id="Capa_1" xmlns="http://www.w3.org/2000/svg" viewBox="0 0 512 197.93"><path d="M128.5,48.47v107.46c0,8.4-6.85,15.24-15.26,15.24H23.49c-8.4,0-15.24-6.84-15.24-15.24V22.96c0-8.41,6.84-15.24,15.24-15.24h63.57l.31.02h.12c1.28.11,2.57.49,3.73,1.11.82.46,1.54,1,2.15,1.61l32.38,32.39c.3.29.52.55.72.8.84,1.04,1.46,2.32,1.77,3.67l.08.35.18.8Z" style="fill:#fff; stroke-width:0px;"/><polygon points="87.37 7.72 87.37 7.74 87.06 7.72 87.37 7.72" style="fill:#fff; stroke-width:0px;"/><polygon points="128.5 47.67 128.5 48.47 128.32 47.67 128.5 47.67" style="fill:#fff; stroke-width:0px;"/><polygon points="87.06 7.72 85.78 7.72 85.78 7.63 87.06 7.72" style="fill:#fff; stroke-width:0px;"/><polygon points="128.68 49.27 128.5 49.27 128.5 48.47 128.68 49.27" style="fill:#fff; stroke-width:0px;"/><path d="M158.29,33.42h85.02v22.94h-60.9v25.81h55.5v22.44h-55.5v26.31h61.74v23.11h-85.86V33.42Z" style="fill:#051b35; stroke-width:0px;"/><path d="M279.58,48.26v18.89h24.12v20.75h-24.12v29.52c0,6.19,1.63,10.35,4.89,12.48,3.26,2.14,7.76,3.2,13.49,3.2h7.59v20.92h-11.3c-25.3,0-37.95-11.69-37.95-35.09V48.26h23.28Z" style="fill:#051b35; stroke-width:0px;"/><rect x="314.66" y="33.42" width="23.28" height="22.6" rx="11.3" ry="11.3" style="fill:#c9a000; stroke-width:0px;"/><rect x="314.66" y="67.15" width="23.28" height="86.87" style="fill:#051b35; stroke-width:0px;"/><path d="M355.9,51.3c3.32-5.73,8.01-10.15,14.09-13.24,6.07-3.09,13.04-4.64,20.92-4.64h12.15v20.41h-12.15c-5.62,0-9.81,1.49-12.57,4.47-2.76,2.98-4.13,7.62-4.13,13.92v.17h25.98v20.41h-25.98v61.23h-23.28v-82.65c0-7.65,1.66-14.34,4.97-20.07Z" style="fill:#051b35; stroke-width:0px;"/><path d="M413.51,169.21h11.81c5.85,0,10.4-3.32,13.66-9.95l3.88-8.6-36.27-83.5h25.64l14.84,35.93,8.1,22.6,8.27-22.6,14.68-35.93h25.64l-37.78,86.87c-3.15,7.53-6.33,13.86-9.53,18.98-3.2,5.12-7.23,9.28-12.06,12.48-4.84,3.2-10.69,4.81-17.54,4.81h-13.33v-21.09Z" style="fill:#051b35; stroke-width:0px;"/><path d="M128.59,47.67v108.26c0,8.4-6.85,15.24-15.26,15.24H23.58c-8.4,0-15.24-6.84-15.24-15.24V22.96c0-8.41,6.84-15.24,15.24-15.24h63.88v7.35l-1.59-.13h-.13c-.17-.02-.37-.02-.54-.02H23.58c-4.44,0-8.05,3.61-8.05,8.04v132.97c0,4.43,3.61,8.04,8.05,8.04h89.75c4.45,0,8.06-3.61,8.06-8.04V51.11c0-.47-.05-.98-.17-1.48l-.08-.36-.38-1.6h7.83Z" style="fill:#051b35; stroke-width:0px;"/><path d="M128.77,49.27h-29.42c-7.43,0-13.48-6.06-13.48-13.5V7.63l1.28.09.31.02h.12c1.28.11,2.57.49,3.73,1.11.82.46,1.54,1,2.15,1.61l32.38,32.39c.3.29.52.55.72.8.84,1.04,1.46,2.32,1.77,3.67l.08.35.18.8.18.8Z" style="fill:#c9a000; stroke-width:0px;"/><path d="M111.62,50.36v22.93c0,1.68-1.37,3.06-3.06,3.06H28.36c-1.69,0-3.06-1.38-3.06-3.06v-24.32c0-1.68,1.37-3.05,3.06-3.05h54.28v-1.33H28.36c-2.42,0-4.4,1.96-4.4,4.38v24.32c0,2.43,1.98,4.39,4.4,4.39h80.2c2.42,0,4.4-1.96,4.4-4.39v-22.93h-1.34Z" style="fill:#051b35; stroke-width:0px;"/><path d="M47.2,55.16v11.95c0,1.6-1.3,2.9-2.9,2.9h-10.78c-1.6,0-2.9-1.3-2.9-2.9v-11.95c0-1.61,1.3-2.91,2.9-2.91h10.78c1.6,0,2.9,1.3,2.9,2.91Z" style="fill:#051b35; stroke-width:0px;"/><rect x="51.88" y="65.78" width="24.85" height="2.48" rx=".93" ry=".93" style="fill:#051b35; stroke-width:0px;"/><path d="M64.55,57.96v.62c0,.51-.42.93-.94.93h-10.8c-.52,0-.93-.42-.93-.93v-.62c0-.51.41-.93.93-.93h10.8c.52,0,.94.42.94.93Z" style="fill:#051b35; stroke-width:0px;"/><rect x="91.44" y="52.6" width="2.77" height="17.06" style="fill:#051b35; stroke-width:0px;"/><rect x="97.65" y="52.6" width="2.76" height="17.06" style="fill:#051b35; stroke-width:0px;"/><rect x="103.85" y="52.6" width="2.77" height="17.06" style="fill:#051b35; stroke-width:0px;"/><path d="M108.56,83.2H28.36c-2.42,0-4.4,1.97-4.4,4.39v24.32c0,2.42,1.98,4.39,4.4,4.39h80.2c2.42,0,4.39-1.97,4.39-4.39v-24.32c0-2.42-1.97-4.39-4.39-4.39ZM111.62,111.91c0,1.68-1.37,3.06-3.06,3.06H28.36c-1.69,0-3.06-1.38-3.06-3.06v-24.32c0-1.68,1.37-3.05,3.06-3.05h80.2c1.69,0,3.06,1.37,3.06,3.05v24.32Z" style="fill:#051b35; stroke-width:0px;"/><rect x="30.62" y="90.87" width="16.58" height="17.76" rx="2.9" ry="2.9" style="fill:#051b35; stroke-width:0px;"/><rect x="51.88" y="104.4" width="24.86" height="2.48" rx=".93" ry=".93" style="fill:#051b35; stroke-width:0px;"/><rect x="51.88" y="95.64" width="12.67" height="2.48" rx=".93" ry=".93" style="fill:#051b35; stroke-width:0px;"/><rect x="91.44" y="91.22" width="2.77" height="17.06" style="fill:#051b35; stroke-width:0px;"/><rect x="97.65" y="91.22" width="2.77" height="17.06" style="fill:#051b35; stroke-width:0px;"/><rect x="103.85" y="91.22" width="2.77" height="17.06" style="fill:#051b35; stroke-width:0px;"/><path d="M108.56,121.82H28.36c-2.42,0-4.4,1.97-4.4,4.39v24.32c0,2.42,1.98,4.39,4.4,4.39h80.2c2.42,0,4.39-1.97,4.39-4.39v-24.32c0-2.42-1.97-4.39-4.39-4.39ZM111.62,150.53c0,1.68-1.37,3.05-3.06,3.05H28.36c-1.69,0-3.06-1.37-3.06-3.05v-24.32c0-1.68,1.37-3.05,3.06-3.05h80.2c1.69,0,3.06,1.37,3.06,3.05v24.32Z" style="fill:#051b35; stroke-width:0px;"/><path d="M121.22,49.64l-.08-.36h-21.79c-7.43,0-13.48-6.06-13.48-13.5V14.95h-.13c-.17-.02-.37-.02-.54-.02H23.58c-4.44,0-8.05,3.61-8.05,8.04v132.97c0,4.43,3.61,8.04,8.05,8.04h89.75c4.45,0,8.06-3.61,8.06-8.04V51.12c0-.47-.05-.98-.17-1.48ZM103.85,52.6h2.77v17.06h-2.77v-17.06ZM97.65,52.6h2.76v17.06h-2.76v-17.06ZM91.44,52.6h2.77v17.06h-2.77v-17.06ZM112.95,150.53c0,2.42-1.97,4.39-4.39,4.39H28.36c-2.42,0-4.4-1.97-4.4-4.39v-24.32c0-2.42,1.98-4.39,4.4-4.39h80.2c2.42,0,4.39,1.97,4.39,4.39v24.32ZM112.95,111.91c0,2.42-1.97,4.39-4.39,4.39H28.36c-2.42,0-4.4-1.97-4.4-4.39v-24.32c0-2.42,1.98-4.39,4.4-4.39h80.2c2.42,0,4.39,1.97,4.39,4.39v24.32ZM112.96,73.29c0,2.43-1.98,4.39-4.4,4.39H28.36c-2.42,0-4.4-1.96-4.4-4.39v-24.32c0-2.42,1.98-4.38,4.4-4.38h54.28v1.33H28.36c-1.69,0-3.06,1.37-3.06,3.05v24.32c0,1.68,1.37,3.06,3.06,3.06h80.2c1.69,0,3.06-1.38,3.06-3.06v-22.93h1.34v22.93ZM52.81,65.78h22.99c.52,0,.93.42.93.93v.62c0,.52-.41.93-.93.93h-22.99c-.52,0-.93-.41-.93-.93v-.62c0-.51.41-.93.93-.93ZM51.88,58.58v-.62c0-.51.41-.93.93-.93h10.8c.52,0,.94.42.94.93v.62c0,.51-.42.93-.94.93h-10.8c-.52,0-.93-.42-.93-.93ZM47.2,55.16v11.95c0,1.6-1.3,2.9-2.9,2.9h-10.78c-1.6,0-2.9-1.3-2.9-2.9v-11.95c0-1.61,1.3-2.91,2.9-2.91h10.78c1.6,0,2.9,1.3,2.9,2.91Z" style="fill:none; stroke-width:0px;"/><rect x="30.62" y="129.49" width="16.58" height="17.76" rx="2.9" ry="2.9" style="fill:#051b35; stroke-width:0px;"/><rect x="51.88" y="143.01" width="24.86" height="2.48" rx=".93" ry=".93" style="fill:#051b35; stroke-width:0px;"/><rect x="51.88" y="134.26" width="12.67" height="2.48" rx=".93" ry=".93" style="fill:#051b35; stroke-width:0px;"/><rect x="91.44" y="129.84" width="2.77" height="17.06" style="fill:#051b35; stroke-width:0px;"/><rect x="97.65" y="129.84" width="2.77" height="17.06" style="fill:#051b35; stroke-width:0px;"/><rect x="103.85" y="129.84" width="2.77" height="17.06" style="fill:#051b35; stroke-width:0px;"/></svg>