<?xml version="1.0" encoding="UTF-8"?><svg id="Capa_1" xmlns="http://www.w3.org/2000/svg" viewBox="0 0 512 197.93"><path d="M128.5,48.47v107.46c0,8.14-6.43,14.81-14.48,15.22-.23.01-.46.02-.69.02H23.58c-.26,0-.52-.01-.78-.02-8.08-.36-14.55-7.05-14.55-15.22V22.96c0-8.18,6.47-14.86,14.55-15.22.26-.01.52-.02.78-.02h63.48l.31.02h.09s.03.01.03.01c1.28.1,2.57.48,3.73,1.1.82.46,1.54,1,2.15,1.61l32.38,32.39c.3.29.52.55.72.8.84,1.04,1.46,2.32,1.77,3.67l.08.35.18.8Z" style="fill:#051b35; stroke-width:0px;"/><polygon points="87.37 7.73 87.37 7.74 87.06 7.72 87.15 7.72 87.37 7.73" style="fill:#051b35; stroke-width:0px;"/><polygon points="128.5 48.07 128.5 48.47 128.32 47.67 128.41 47.67 128.5 48.07" style="fill:#051b35; stroke-width:0px;"/><polygon points="128.59 48.87 128.59 49.27 128.5 49.27 128.5 48.47 128.59 48.87" style="fill:#051b35; stroke-width:0px;"/><path d="M158.29,33.42h85.02v22.94h-60.9v25.81h55.5v22.44h-55.5v26.31h61.74v23.11h-85.86V33.42Z" style="fill:#051b35; stroke-width:0px;"/><path d="M279.58,48.26v18.89h24.12v20.75h-24.12v29.52c0,6.19,1.63,10.35,4.89,12.48,3.26,2.14,7.76,3.2,13.49,3.2h7.59v20.92h-11.3c-25.3,0-37.95-11.69-37.95-35.09V48.26h23.28Z" style="fill:#051b35; stroke-width:0px;"/><rect x="314.66" y="33.42" width="23.28" height="22.6" rx="11.3" ry="11.3" style="fill:#c9a000; stroke-width:0px;"/><rect x="314.66" y="67.15" width="23.28" height="86.87" style="fill:#051b35; stroke-width:0px;"/><path d="M355.9,51.3c3.32-5.73,8.01-10.15,14.09-13.24,6.07-3.09,13.04-4.64,20.92-4.64h12.15v20.41h-12.15c-5.62,0-9.81,1.49-12.57,4.47-2.76,2.98-4.13,7.62-4.13,13.92v.17h25.98v20.41h-25.98v61.23h-23.28v-82.65c0-7.65,1.66-14.34,4.97-20.07Z" style="fill:#051b35; stroke-width:0px;"/><path d="M413.51,169.21h11.81c5.85,0,10.4-3.32,13.66-9.95l3.88-8.6-36.27-83.5h25.64l14.84,35.93,8.1,22.6,8.27-22.6,14.68-35.93h25.64l-37.78,86.87c-3.15,7.53-6.33,13.86-9.53,18.98-3.2,5.12-7.23,9.28-12.06,12.48-4.84,3.2-10.69,4.81-17.54,4.81h-13.33v-21.09Z" style="fill:#051b35; stroke-width:0px;"/><path d="M128.59,48.47v107.46c0,8.17-6.48,14.86-14.57,15.22-.23.01-.46.02-.69.02H23.58c-.26,0-.52-.01-.78-.02-8.04-.41-14.46-7.08-14.46-15.22V22.96c0-8.15,6.42-14.81,14.46-15.22.26-.01.52-.02.78-.02h63.79s.09.02.09.02v7.33l-1.59-.13h-.13c-.17-.02-.37-.02-.54-.02H23.58c-4.44,0-8.05,3.61-8.05,8.04v132.97c0,4.43,3.61,8.04,8.05,8.04h89.75c4.45,0,8.06-3.61,8.06-8.04V51.11c0-.47-.05-.98-.17-1.48l-.08-.36-.38-1.6h7.65l.09.4.09.4Z" style="fill:#051b35; stroke-width:0px;"/><path d="M121.39,51.11v104.82c0,4.43-3.61,8.04-8.06,8.04H23.58c-4.44,0-8.05-3.61-8.05-8.04V22.96c0-4.43,3.61-8.04,8.05-8.04h61.62c.17,0,.37,0,.54.01h.13v20.84c0,7.44,6.05,13.5,13.48,13.5h21.79l.08.36c.12.5.17,1.01.17,1.48Z" style="fill:none; stroke-width:0px;"/><path d="M112.95,50.35v-5.77H28.36c-2.42,0-4.4,1.96-4.4,4.38v24.32c0,2.43,1.98,4.39,4.4,4.39h80.2c2.42,0,4.4-1.96,4.4-4.39v-22.93h-.01ZM51.88,57.95c0-.51.41-.93.93-.93h10.8c.52,0,.94.42.94.93v.62c0,.51-.42.93-.94.93h-10.8c-.52,0-.93-.42-.93-.93v-.62ZM47.2,67.1c0,1.6-1.3,2.9-2.9,2.9h-10.78c-1.6,0-2.9-1.3-2.9-2.9v-11.95c0-1.61,1.3-2.91,2.9-2.91h10.78c1.6,0,2.9,1.3,2.9,2.91v11.95ZM76.73,67.32c0,.52-.41.93-.93.93h-22.99c-.52,0-.93-.41-.93-.93v-.62c0-.51.41-.93.93-.93h22.99c.52,0,.93.42.93.93v.62ZM94.21,69.65h-2.77v-17.06h2.77v17.06ZM100.41,69.65h-2.76v-17.06h2.76v17.06ZM106.62,69.65h-2.77v-17.06h2.77v17.06Z" style="fill:#fff; stroke-width:0px;"/><path d="M47.2,55.15v11.95c0,1.6-1.3,2.9-2.9,2.9h-10.78c-1.6,0-2.9-1.3-2.9-2.9v-11.95c0-1.61,1.3-2.91,2.9-2.91h10.78c1.6,0,2.9,1.3,2.9,2.91Z" style="fill:#051b35; stroke-width:0px;"/><path d="M76.73,66.7v.62c0,.52-.41.93-.93.93h-22.99c-.52,0-.93-.41-.93-.93v-.62c0-.51.41-.93.93-.93h22.99c.52,0,.93.42.93.93Z" style="fill:#051b35; stroke-width:0px;"/><path d="M64.55,57.95v.62c0,.51-.42.93-.94.93h-10.8c-.52,0-.93-.42-.93-.93v-.62c0-.51.41-.93.93-.93h10.8c.52,0,.94.42.94.93Z" style="fill:#051b35; stroke-width:0px;"/><rect x="91.44" y="52.59" width="2.77" height="17.06" style="fill:#051b35; stroke-width:0px;"/><rect x="97.65" y="52.59" width="2.76" height="17.06" style="fill:#051b35; stroke-width:0px;"/><rect x="103.85" y="52.59" width="2.77" height="17.06" style="fill:#051b35; stroke-width:0px;"/><path d="M112.95,87.58v24.32c0,2.42-1.97,4.39-4.39,4.39H28.36c-2.42,0-4.4-1.97-4.4-4.39v-24.32c0-2.42,1.98-4.39,4.4-4.39h80.2c2.42,0,4.39,1.97,4.39,4.39Z" style="fill:#fff; stroke-width:0px;"/><rect x="30.62" y="90.87" width="16.58" height="17.76" rx="2.9" ry="2.9" style="fill:#051b35; stroke-width:0px;"/><rect x="51.88" y="104.4" width="24.86" height="2.48" rx=".93" ry=".93" style="fill:#051b35; stroke-width:0px;"/><rect x="51.88" y="95.64" width="12.67" height="2.48" rx=".93" ry=".93" style="fill:#051b35; stroke-width:0px;"/><rect x="91.44" y="91.22" width="2.77" height="17.06" style="fill:#051b35; stroke-width:0px;"/><rect x="97.65" y="91.22" width="2.77" height="17.06" style="fill:#051b35; stroke-width:0px;"/><rect x="103.85" y="91.22" width="2.77" height="17.06" style="fill:#051b35; stroke-width:0px;"/><path d="M112.95,126.2v24.32c0,2.42-1.97,4.39-4.39,4.39H28.36c-2.42,0-4.4-1.97-4.4-4.39v-24.32c0-2.42,1.98-4.39,4.4-4.39h80.2c2.42,0,4.39,1.97,4.39,4.39Z" style="fill:#fff; stroke-width:0px;"/><rect x="30.62" y="129.49" width="16.58" height="17.76" rx="2.9" ry="2.9" style="fill:#051b35; stroke-width:0px;"/><rect x="51.88" y="143.01" width="24.86" height="2.48" rx=".93" ry=".93" style="fill:#051b35; stroke-width:0px;"/><rect x="51.88" y="134.26" width="12.67" height="2.48" rx=".93" ry=".93" style="fill:#051b35; stroke-width:0px;"/><rect x="91.44" y="129.84" width="2.77" height="17.06" style="fill:#051b35; stroke-width:0px;"/><rect x="97.65" y="129.84" width="2.77" height="17.06" style="fill:#051b35; stroke-width:0px;"/><rect x="103.85" y="129.84" width="2.77" height="17.06" style="fill:#051b35; stroke-width:0px;"/><rect x="91.44" y="52.59" width="2.77" height=".89" style="fill:#051b35; stroke-width:0px;"/><rect x="97.65" y="52.59" width="2.76" height=".89" style="fill:#051b35; stroke-width:0px;"/><rect x="103.85" y="52.59" width="2.77" height=".89" style="fill:#051b35; stroke-width:0px;"/><path d="M128.59,48.47v.8h-29.24c-.46,0-.92-.02-1.38-.07-.16-.02-.32-.04-.48-.06-.03-.01-.06-.01-.09-.02h-.02c-.11-.01-.23-.03-.34-.05-.04-.01-.07-.01-.11-.02-.02,0-.03-.01-.05-.01-.16-.03-.34-.06-.5-.1-.23-.05-.46-.11-.69-.18-.03-.01-.07-.02-.1-.03-.23-.06-.47-.14-.69-.22-.18-.06-.36-.12-.53-.2-.03-.01-.06-.02-.09-.03-.21-.09-.42-.18-.63-.28-.22-.1-.43-.21-.64-.32-.1-.05-.2-.11-.29-.16-.12-.07-.24-.14-.35-.21-.21-.13-.42-.26-.62-.4-.18-.12-.36-.25-.53-.38-.25-.19-.49-.39-.72-.59l-.21-.18c-.23-.21-.45-.43-.66-.65-.17-.17-.32-.35-.48-.53-.13-.15-.25-.3-.37-.45-.13-.17-.26-.33-.38-.5-.11-.15-.21-.3-.31-.45-.11-.17-.21-.33-.31-.5-.18-.3-.35-.6-.5-.92-.07-.15-.15-.3-.22-.46-.02-.03-.03-.07-.05-.1-.05-.13-.11-.26-.16-.39-.06-.14-.11-.28-.16-.41-.08-.2-.15-.41-.21-.62-.04-.12-.08-.25-.11-.37-.06-.19-.11-.39-.15-.58-.04-.15-.07-.31-.1-.46-.03-.18-.07-.37-.09-.55-.07-.45-.12-.9-.14-1.36-.01-.23-.02-.46-.02-.69V7.72h1.5s.09.02.09.02h.12c1.28.11,2.57.49,3.73,1.11.82.46,1.54,1,2.15,1.61l32.38,32.39c.3.29.52.55.72.8.84,1.04,1.46,2.32,1.77,3.67l.08.35.09.4.09.4Z" style="fill:#c9a000; stroke-width:0px;"/></svg>